<mxfile host="Electron" modified="2023-11-14T13:04:48.225Z" agent="Mozilla/5.0 (Windows NT 10.0; Win64; x64) AppleWebKit/537.36 (KHTML, like Gecko) draw.io/22.0.0 Chrome/114.0.5735.289 Electron/25.8.3 Safari/537.36" etag="ZB-wJ8VwYfhZQTjfoIAW" version="22.0.0" type="device">
  <diagram name="Page-1" id="hpcHzb7ciairsFcxodrO">
    <mxGraphModel dx="1036" dy="605" grid="1" gridSize="10" guides="1" tooltips="1" connect="1" arrows="1" fold="1" page="1" pageScale="1" pageWidth="827" pageHeight="1169" math="0" shadow="0">
      <root>
        <mxCell id="0" />
        <mxCell id="1" parent="0" />
        <mxCell id="C4A5u8B9H09UK9R4ihqy-1" value="&lt;b&gt;Consumer group&lt;/b&gt;" style="rounded=0;whiteSpace=wrap;html=1;sketch=1;hachureGap=4;jiggle=2;curveFitting=1;fontFamily=Architects Daughter;fontSource=https%3A%2F%2Ffonts.googleapis.com%2Fcss%3Ffamily%3DArchitects%2BDaughter;fontSize=20;verticalAlign=top;fillColor=#fff2cc;strokeColor=#d6b656;" parent="1" vertex="1">
          <mxGeometry x="470" y="250" width="160" height="210" as="geometry" />
        </mxCell>
        <mxCell id="C4A5u8B9H09UK9R4ihqy-25" style="edgeStyle=orthogonalEdgeStyle;rounded=0;sketch=1;hachureGap=4;jiggle=2;curveFitting=1;orthogonalLoop=1;jettySize=auto;html=1;exitX=0;exitY=0.5;exitDx=0;exitDy=0;entryX=1;entryY=0.25;entryDx=0;entryDy=0;fontFamily=Architects Daughter;fontSource=https%3A%2F%2Ffonts.googleapis.com%2Fcss%3Ffamily%3DArchitects%2BDaughter;fontSize=16;" parent="1" source="C4A5u8B9H09UK9R4ihqy-4" target="C4A5u8B9H09UK9R4ihqy-7" edge="1">
          <mxGeometry relative="1" as="geometry" />
        </mxCell>
        <mxCell id="C4A5u8B9H09UK9R4ihqy-28" value="&lt;b&gt;&lt;font style=&quot;font-size: 15px;&quot;&gt;4: JoinGroup&lt;br&gt;&lt;/font&gt;&lt;/b&gt;" style="edgeLabel;html=1;align=center;verticalAlign=middle;resizable=0;points=[];fontSize=20;fontFamily=Architects Daughter;" parent="C4A5u8B9H09UK9R4ihqy-25" vertex="1" connectable="0">
          <mxGeometry y="-2" relative="1" as="geometry">
            <mxPoint x="2" y="-15" as="offset" />
          </mxGeometry>
        </mxCell>
        <mxCell id="C4A5u8B9H09UK9R4ihqy-31" style="edgeStyle=orthogonalEdgeStyle;rounded=0;sketch=1;hachureGap=4;jiggle=2;curveFitting=1;orthogonalLoop=1;jettySize=auto;html=1;exitX=0.25;exitY=1;exitDx=0;exitDy=0;entryX=0.75;entryY=1;entryDx=0;entryDy=0;fontFamily=Architects Daughter;fontSource=https%3A%2F%2Ffonts.googleapis.com%2Fcss%3Ffamily%3DArchitects%2BDaughter;fontSize=16;" parent="1" source="C4A5u8B9H09UK9R4ihqy-4" target="C4A5u8B9H09UK9R4ihqy-7" edge="1">
          <mxGeometry relative="1" as="geometry">
            <Array as="points">
              <mxPoint x="520" y="500" />
              <mxPoint x="173" y="500" />
            </Array>
          </mxGeometry>
        </mxCell>
        <mxCell id="C4A5u8B9H09UK9R4ihqy-32" value="&lt;b style=&quot;font-size: 15px;&quot;&gt;&lt;font style=&quot;font-size: 15px;&quot;&gt;7: Sync&lt;/font&gt;&lt;/b&gt;" style="edgeLabel;html=1;align=center;verticalAlign=middle;resizable=0;points=[];fontSize=15;fontFamily=Architects Daughter;" parent="C4A5u8B9H09UK9R4ihqy-31" vertex="1" connectable="0">
          <mxGeometry x="0.0264" y="-1" relative="1" as="geometry">
            <mxPoint as="offset" />
          </mxGeometry>
        </mxCell>
        <mxCell id="WaVFnX13KgdFPzwtVL8i-6" style="edgeStyle=orthogonalEdgeStyle;rounded=0;sketch=1;hachureGap=4;jiggle=2;curveFitting=1;orthogonalLoop=1;jettySize=auto;html=1;exitX=0.75;exitY=0;exitDx=0;exitDy=0;entryX=1;entryY=0.5;entryDx=0;entryDy=0;fontFamily=Architects Daughter;fontSource=https%3A%2F%2Ffonts.googleapis.com%2Fcss%3Ffamily%3DArchitects%2BDaughter;fontSize=16;" edge="1" parent="1" source="C4A5u8B9H09UK9R4ihqy-4" target="C4A5u8B9H09UK9R4ihqy-9">
          <mxGeometry relative="1" as="geometry" />
        </mxCell>
        <mxCell id="WaVFnX13KgdFPzwtVL8i-7" value="&lt;b style=&quot;font-size: 15px;&quot;&gt;&lt;font style=&quot;font-size: 15px;&quot;&gt;6: onAssignment()&lt;/font&gt;&lt;/b&gt;" style="edgeLabel;html=1;align=center;verticalAlign=middle;resizable=0;points=[];fontSize=15;fontFamily=Architects Daughter;" vertex="1" connectable="0" parent="WaVFnX13KgdFPzwtVL8i-6">
          <mxGeometry x="0.1" y="-4" relative="1" as="geometry">
            <mxPoint x="6" y="11" as="offset" />
          </mxGeometry>
        </mxCell>
        <mxCell id="C4A5u8B9H09UK9R4ihqy-4" value="Consumer&lt;br&gt;&lt;font style=&quot;font-size: 15px;&quot;&gt;group-leader&lt;/font&gt;" style="rounded=0;whiteSpace=wrap;html=1;sketch=1;hachureGap=4;jiggle=2;curveFitting=1;fontFamily=Architects Daughter;fontSource=https%3A%2F%2Ffonts.googleapis.com%2Fcss%3Ffamily%3DArchitects%2BDaughter;fontSize=20;fillColor=#ffe6cc;strokeColor=#d79b00;fontStyle=1" parent="1" vertex="1">
          <mxGeometry x="490" y="330" width="120" height="60" as="geometry" />
        </mxCell>
        <mxCell id="C4A5u8B9H09UK9R4ihqy-26" style="edgeStyle=orthogonalEdgeStyle;rounded=0;sketch=1;hachureGap=4;jiggle=2;curveFitting=1;orthogonalLoop=1;jettySize=auto;html=1;entryX=0.5;entryY=0;entryDx=0;entryDy=0;fontFamily=Architects Daughter;fontSource=https%3A%2F%2Ffonts.googleapis.com%2Fcss%3Ffamily%3DArchitects%2BDaughter;fontSize=16;exitX=0.75;exitY=0;exitDx=0;exitDy=0;" parent="1" source="C4A5u8B9H09UK9R4ihqy-7" target="C4A5u8B9H09UK9R4ihqy-4" edge="1">
          <mxGeometry relative="1" as="geometry">
            <mxPoint x="210" y="400" as="sourcePoint" />
            <Array as="points">
              <mxPoint x="193" y="310" />
              <mxPoint x="550" y="310" />
            </Array>
          </mxGeometry>
        </mxCell>
        <mxCell id="C4A5u8B9H09UK9R4ihqy-27" value="&lt;b&gt;&lt;font style=&quot;font-size: 15px;&quot;&gt;3. OnPartitionsRevoked&lt;/font&gt;&lt;/b&gt;" style="edgeLabel;html=1;align=center;verticalAlign=middle;resizable=0;points=[];fontSize=20;fontFamily=Architects Daughter;" parent="C4A5u8B9H09UK9R4ihqy-26" vertex="1" connectable="0">
          <mxGeometry x="0.0479" y="-4" relative="1" as="geometry">
            <mxPoint x="4" y="-4" as="offset" />
          </mxGeometry>
        </mxCell>
        <mxCell id="C4A5u8B9H09UK9R4ihqy-33" style="edgeStyle=orthogonalEdgeStyle;rounded=0;sketch=1;hachureGap=4;jiggle=2;curveFitting=1;orthogonalLoop=1;jettySize=auto;html=1;exitX=0.5;exitY=1;exitDx=0;exitDy=0;entryX=0.75;entryY=1;entryDx=0;entryDy=0;fontFamily=Architects Daughter;fontSource=https%3A%2F%2Ffonts.googleapis.com%2Fcss%3Ffamily%3DArchitects%2BDaughter;fontSize=16;" parent="1" source="C4A5u8B9H09UK9R4ihqy-7" target="C4A5u8B9H09UK9R4ihqy-4" edge="1">
          <mxGeometry relative="1" as="geometry">
            <Array as="points">
              <mxPoint x="135" y="540" />
              <mxPoint x="580" y="540" />
            </Array>
          </mxGeometry>
        </mxCell>
        <mxCell id="C4A5u8B9H09UK9R4ihqy-34" value="&lt;b&gt;&lt;font style=&quot;font-size: 15px;&quot;&gt;8: OnPartitionsAssigned&lt;/font&gt;&lt;/b&gt;" style="edgeLabel;html=1;align=center;verticalAlign=middle;resizable=0;points=[];fontSize=20;fontFamily=Architects Daughter;" parent="C4A5u8B9H09UK9R4ihqy-33" vertex="1" connectable="0">
          <mxGeometry x="-0.0252" y="-1" relative="1" as="geometry">
            <mxPoint x="-31" as="offset" />
          </mxGeometry>
        </mxCell>
        <mxCell id="WaVFnX13KgdFPzwtVL8i-2" style="edgeStyle=orthogonalEdgeStyle;rounded=0;sketch=1;hachureGap=4;jiggle=2;curveFitting=1;orthogonalLoop=1;jettySize=auto;html=1;exitX=1;exitY=0.5;exitDx=0;exitDy=0;entryX=0.5;entryY=1;entryDx=0;entryDy=0;fontFamily=Architects Daughter;fontSource=https%3A%2F%2Ffonts.googleapis.com%2Fcss%3Ffamily%3DArchitects%2BDaughter;fontSize=16;startArrow=none;startFill=0;" edge="1" parent="1">
          <mxGeometry relative="1" as="geometry">
            <mxPoint x="211" y="430" as="sourcePoint" />
            <mxPoint x="551" y="390" as="targetPoint" />
          </mxGeometry>
        </mxCell>
        <mxCell id="WaVFnX13KgdFPzwtVL8i-3" value="&lt;font style=&quot;font-size: 15px;&quot;&gt;5: Assign()&lt;/font&gt;" style="edgeLabel;html=1;align=center;verticalAlign=middle;resizable=0;points=[];fontSize=20;fontFamily=Architects Daughter;fontStyle=1" vertex="1" connectable="0" parent="WaVFnX13KgdFPzwtVL8i-2">
          <mxGeometry x="-0.3811" y="-2" relative="1" as="geometry">
            <mxPoint as="offset" />
          </mxGeometry>
        </mxCell>
        <mxCell id="WaVFnX13KgdFPzwtVL8i-8" style="edgeStyle=orthogonalEdgeStyle;rounded=0;sketch=1;hachureGap=4;jiggle=2;curveFitting=1;orthogonalLoop=1;jettySize=auto;html=1;exitX=0.25;exitY=0;exitDx=0;exitDy=0;entryX=0;entryY=0.5;entryDx=0;entryDy=0;fontFamily=Architects Daughter;fontSource=https%3A%2F%2Ffonts.googleapis.com%2Fcss%3Ffamily%3DArchitects%2BDaughter;fontSize=16;" edge="1" parent="1" source="C4A5u8B9H09UK9R4ihqy-7" target="C4A5u8B9H09UK9R4ihqy-9">
          <mxGeometry relative="1" as="geometry" />
        </mxCell>
        <mxCell id="C4A5u8B9H09UK9R4ihqy-7" value="&lt;b&gt;Broker&lt;br&gt;&lt;font style=&quot;font-size: 15px;&quot;&gt;group coordinator&lt;/font&gt;&lt;br&gt;&lt;/b&gt;" style="rounded=0;whiteSpace=wrap;html=1;sketch=1;hachureGap=4;jiggle=2;curveFitting=1;fontFamily=Architects Daughter;fontSource=https%3A%2F%2Ffonts.googleapis.com%2Fcss%3Ffamily%3DArchitects%2BDaughter;fontSize=20;fillColor=#dae8fc;strokeColor=#6c8ebf;" parent="1" vertex="1">
          <mxGeometry x="60" y="390" width="150" height="80" as="geometry" />
        </mxCell>
        <mxCell id="C4A5u8B9H09UK9R4ihqy-10" style="edgeStyle=orthogonalEdgeStyle;rounded=0;sketch=1;hachureGap=4;jiggle=2;curveFitting=1;orthogonalLoop=1;jettySize=auto;html=1;exitX=0.25;exitY=1;exitDx=0;exitDy=0;fontFamily=Architects Daughter;fontSource=https%3A%2F%2Ffonts.googleapis.com%2Fcss%3Ffamily%3DArchitects%2BDaughter;fontSize=16;" parent="1" target="C4A5u8B9H09UK9R4ihqy-7" edge="1">
          <mxGeometry relative="1" as="geometry">
            <mxPoint x="395" y="220" as="sourcePoint" />
            <mxPoint x="140" y="430" as="targetPoint" />
            <Array as="points">
              <mxPoint x="395" y="260" />
              <mxPoint x="140" y="260" />
            </Array>
          </mxGeometry>
        </mxCell>
        <mxCell id="C4A5u8B9H09UK9R4ihqy-11" value="&lt;b&gt;&lt;font style=&quot;font-size: 15px;&quot;&gt;2: JoinGroup&lt;/font&gt;&lt;/b&gt;" style="edgeLabel;html=1;align=center;verticalAlign=middle;resizable=0;points=[];fontSize=20;fontFamily=Architects Daughter;" parent="C4A5u8B9H09UK9R4ihqy-10" vertex="1" connectable="0">
          <mxGeometry x="-0.0864" y="-3" relative="1" as="geometry">
            <mxPoint x="-1" y="-7" as="offset" />
          </mxGeometry>
        </mxCell>
        <mxCell id="WaVFnX13KgdFPzwtVL8i-10" style="edgeStyle=orthogonalEdgeStyle;rounded=0;sketch=1;hachureGap=4;jiggle=2;curveFitting=1;orthogonalLoop=1;jettySize=auto;html=1;exitX=0;exitY=0.25;exitDx=0;exitDy=0;entryX=1;entryY=0.5;entryDx=0;entryDy=0;fontFamily=Architects Daughter;fontSource=https%3A%2F%2Ffonts.googleapis.com%2Fcss%3Ffamily%3DArchitects%2BDaughter;fontSize=16;" edge="1" parent="1" source="C4A5u8B9H09UK9R4ihqy-9" target="C4A5u8B9H09UK9R4ihqy-12">
          <mxGeometry relative="1" as="geometry" />
        </mxCell>
        <mxCell id="WaVFnX13KgdFPzwtVL8i-11" value="&lt;font style=&quot;font-size: 15px;&quot;&gt;&lt;b&gt;find group coordinator&lt;/b&gt;&lt;/font&gt;" style="edgeLabel;html=1;align=center;verticalAlign=middle;resizable=0;points=[];fontSize=20;fontFamily=Architects Daughter;" vertex="1" connectable="0" parent="WaVFnX13KgdFPzwtVL8i-10">
          <mxGeometry x="0.2651" relative="1" as="geometry">
            <mxPoint x="15" y="26" as="offset" />
          </mxGeometry>
        </mxCell>
        <mxCell id="C4A5u8B9H09UK9R4ihqy-9" value="Consumer&lt;br&gt;&lt;font style=&quot;font-size: 15px;&quot;&gt;new&lt;/font&gt;" style="rounded=0;whiteSpace=wrap;html=1;sketch=1;hachureGap=4;jiggle=2;curveFitting=1;fontFamily=Architects Daughter;fontSource=https%3A%2F%2Ffonts.googleapis.com%2Fcss%3Ffamily%3DArchitects%2BDaughter;fontSize=20;fillColor=#ffe6cc;strokeColor=#d79b00;fontStyle=1" parent="1" vertex="1">
          <mxGeometry x="380" y="160" width="120" height="60" as="geometry" />
        </mxCell>
        <mxCell id="C4A5u8B9H09UK9R4ihqy-12" value="&lt;b&gt;Broker&lt;br&gt;&lt;font style=&quot;font-size: 15px;&quot;&gt;Seed&lt;/font&gt;&lt;br&gt;&lt;/b&gt;" style="rounded=0;whiteSpace=wrap;html=1;sketch=1;hachureGap=4;jiggle=2;curveFitting=1;fontFamily=Architects Daughter;fontSource=https%3A%2F%2Ffonts.googleapis.com%2Fcss%3Ffamily%3DArchitects%2BDaughter;fontSize=20;fillColor=#dae8fc;strokeColor=#6c8ebf;" parent="1" vertex="1">
          <mxGeometry x="80" y="70" width="150" height="80" as="geometry" />
        </mxCell>
        <mxCell id="WaVFnX13KgdFPzwtVL8i-9" value="&lt;b&gt;&lt;font style=&quot;font-size: 15px;&quot;&gt;8: OnPartitionsAssigned&lt;/font&gt;&lt;/b&gt;" style="edgeLabel;html=1;align=center;verticalAlign=middle;resizable=0;points=[];fontSize=20;fontFamily=Architects Daughter;" vertex="1" connectable="0" parent="1">
          <mxGeometry x="230" y="190" as="geometry" />
        </mxCell>
        <mxCell id="WaVFnX13KgdFPzwtVL8i-12" style="edgeStyle=orthogonalEdgeStyle;rounded=0;sketch=1;hachureGap=4;jiggle=2;curveFitting=1;orthogonalLoop=1;jettySize=auto;html=1;exitX=0.5;exitY=1;exitDx=0;exitDy=0;entryX=0.699;entryY=-0.005;entryDx=0;entryDy=0;entryPerimeter=0;fontFamily=Architects Daughter;fontSource=https%3A%2F%2Ffonts.googleapis.com%2Fcss%3Ffamily%3DArchitects%2BDaughter;fontSize=16;" edge="1" parent="1" source="C4A5u8B9H09UK9R4ihqy-9" target="C4A5u8B9H09UK9R4ihqy-7">
          <mxGeometry relative="1" as="geometry">
            <Array as="points">
              <mxPoint x="440" y="280" />
              <mxPoint x="165" y="280" />
            </Array>
          </mxGeometry>
        </mxCell>
        <mxCell id="WaVFnX13KgdFPzwtVL8i-13" value="7:sync" style="edgeLabel;html=1;align=center;verticalAlign=middle;resizable=0;points=[];fontSize=15;fontFamily=Architects Daughter;fontStyle=1" vertex="1" connectable="0" parent="WaVFnX13KgdFPzwtVL8i-12">
          <mxGeometry x="-0.1437" y="5" relative="1" as="geometry">
            <mxPoint as="offset" />
          </mxGeometry>
        </mxCell>
      </root>
    </mxGraphModel>
  </diagram>
</mxfile>
